<svg width="171" height="21" viewBox="0 0 171 21" fill="none" xmlns="http://www.w3.org/2000/svg">
<path d="M8.32031 16.1953C7.25911 16.1953 6.2793 16.013 5.38086 15.6484C4.48893 15.2839 3.71094 14.7728 3.04688 14.1152C2.38932 13.4577 1.87826 12.6829 1.51367 11.791C1.1556 10.8926 0.976562 9.91602 0.976562 8.86133C0.976562 7.80013 1.15885 6.82357 1.52344 5.93164C1.88802 5.0332 2.39909 4.25521 3.05664 3.59766C3.7207 2.9401 4.4987 2.42904 5.39062 2.06445C6.28906 1.69987 7.26562 1.51758 8.32031 1.51758C9.34245 1.51758 10.2962 1.70312 11.1816 2.07422C12.0736 2.4388 12.8548 2.95312 13.5254 3.61719C14.196 4.27474 14.7201 5.04948 15.0977 5.94141C15.4753 6.83333 15.6641 7.80664 15.6641 8.86133C15.6641 9.91602 15.4818 10.8926 15.1172 11.791C14.7526 12.6829 14.2383 13.4577 13.5742 14.1152C12.9167 14.7728 12.1387 15.2839 11.2402 15.6484C10.3483 16.013 9.375 16.1953 8.32031 16.1953ZM8.63281 13.3242C7.31771 13.3242 6.32812 12.9206 5.66406 12.1133C5 11.2995 4.66797 10.2155 4.66797 8.86133C4.66797 7.99544 4.82422 7.23047 5.13672 6.56641C5.45573 5.89583 5.91471 5.37174 6.51367 4.99414C7.11914 4.61003 7.85156 4.41797 8.71094 4.41797C9.14062 4.41797 9.56706 4.47005 9.99023 4.57422C10.4134 4.67839 10.8105 4.82487 11.1816 5.01367L10.6348 6.14648C10.3092 5.97721 9.98698 5.85026 9.66797 5.76562C9.34896 5.67448 9.03646 5.62891 8.73047 5.62891C7.90365 5.62891 7.26237 5.91862 6.80664 6.49805C6.35091 7.07096 6.12305 7.85872 6.12305 8.86133C6.12305 9.90299 6.32812 10.7038 6.73828 11.2637C7.15495 11.8236 7.80924 12.1035 8.70117 12.1035C9.02669 12.1035 9.375 12.0612 9.74609 11.9766C10.1237 11.8919 10.4818 11.7812 10.8203 11.6445V12.8359C10.5013 12.9792 10.1725 13.0964 9.83398 13.1875C9.49544 13.2786 9.09505 13.3242 8.63281 13.3242ZM8.32031 15.1992C9.1862 15.1992 9.99674 15.043 10.752 14.7305C11.5137 14.418 12.181 13.9785 12.7539 13.4121C13.3268 12.8392 13.776 12.1686 14.1016 11.4004C14.4271 10.6257 14.5898 9.7793 14.5898 8.86133C14.5898 7.98893 14.4336 7.17188 14.1211 6.41016C13.8151 5.64844 13.3822 4.97461 12.8223 4.38867C12.2624 3.80273 11.5983 3.34701 10.8301 3.02148C10.0684 2.68945 9.23177 2.52344 8.32031 2.52344C7.40885 2.52344 6.56901 2.67969 5.80078 2.99219C5.03906 3.30469 4.375 3.7474 3.80859 4.32031C3.2487 4.88672 2.8125 5.55729 2.5 6.33203C2.19401 7.10026 2.04102 7.94336 2.04102 8.86133C2.04102 9.73372 2.19401 10.554 2.5 11.3223C2.80599 12.084 3.23893 12.7578 3.79883 13.3438C4.36523 13.9232 5.0293 14.3789 5.79102 14.7109C6.55924 15.0365 7.40234 15.1992 8.32031 15.1992ZM35.127 8.72461C35.127 10.3327 34.834 11.6771 34.248 12.7578C33.6621 13.832 32.8125 14.6426 31.6992 15.1895C30.5924 15.7298 29.248 16 27.666 16H23.7891V1.72266H28.0957C29.5475 1.72266 30.7975 1.98958 31.8457 2.52344C32.8939 3.05078 33.7012 3.83529 34.2676 4.87695C34.8405 5.91211 35.127 7.19466 35.127 8.72461ZM33.3789 8.7832C33.3789 7.50065 33.1641 6.44271 32.7344 5.60938C32.3112 4.77604 31.6862 4.15755 30.8594 3.75391C30.0391 3.34375 29.0332 3.13867 27.8418 3.13867H25.4492V14.5742H27.4707C29.4368 14.5742 30.9115 14.0892 31.8945 13.1191C32.8841 12.1491 33.3789 10.7038 33.3789 8.7832ZM42.1777 5.10156C43.0892 5.10156 43.8704 5.30339 44.5215 5.70703C45.1725 6.11068 45.6706 6.67708 46.0156 7.40625C46.3607 8.12891 46.5332 8.97526 46.5332 9.94531V10.9512H39.1406C39.1602 12.2077 39.4727 13.1647 40.0781 13.8223C40.6836 14.4798 41.5365 14.8086 42.6367 14.8086C43.3138 14.8086 43.9128 14.7467 44.4336 14.623C44.9544 14.4993 45.4948 14.3171 46.0547 14.0762V15.502C45.5143 15.7428 44.9772 15.9186 44.4434 16.0293C43.916 16.14 43.291 16.1953 42.5684 16.1953C41.5397 16.1953 40.6413 15.987 39.873 15.5703C39.1113 15.1471 38.5189 14.5286 38.0957 13.7148C37.6725 12.901 37.4609 11.9049 37.4609 10.7266C37.4609 9.57422 37.653 8.57812 38.0371 7.73828C38.4277 6.89193 38.9746 6.24089 39.6777 5.78516C40.3874 5.32943 41.2207 5.10156 42.1777 5.10156ZM42.1582 6.42969C41.2923 6.42969 40.6022 6.71289 40.0879 7.2793C39.5736 7.8457 39.2676 8.63672 39.1699 9.65234H44.834C44.8275 9.01432 44.7266 8.45443 44.5312 7.97266C44.3424 7.48438 44.0527 7.10677 43.6621 6.83984C43.2715 6.56641 42.7702 6.42969 42.1582 6.42969ZM53.4082 5.10156C54.3197 5.10156 55.1009 5.30339 55.752 5.70703C56.403 6.11068 56.901 6.67708 57.2461 7.40625C57.5911 8.12891 57.7637 8.97526 57.7637 9.94531V10.9512H50.3711C50.3906 12.2077 50.7031 13.1647 51.3086 13.8223C51.9141 14.4798 52.7669 14.8086 53.8672 14.8086C54.5443 14.8086 55.1432 14.7467 55.6641 14.623C56.1849 14.4993 56.7253 14.3171 57.2852 14.0762V15.502C56.7448 15.7428 56.2077 15.9186 55.6738 16.0293C55.1465 16.14 54.5215 16.1953 53.7988 16.1953C52.7702 16.1953 51.8717 15.987 51.1035 15.5703C50.3418 15.1471 49.7493 14.5286 49.3262 13.7148C48.903 12.901 48.6914 11.9049 48.6914 10.7266C48.6914 9.57422 48.8835 8.57812 49.2676 7.73828C49.6582 6.89193 50.2051 6.24089 50.9082 5.78516C51.6178 5.32943 52.4512 5.10156 53.4082 5.10156ZM53.3887 6.42969C52.5228 6.42969 51.8327 6.71289 51.3184 7.2793C50.804 7.8457 50.498 8.63672 50.4004 9.65234H56.0645C56.0579 9.01432 55.957 8.45443 55.7617 7.97266C55.5729 7.48438 55.2832 7.10677 54.8926 6.83984C54.502 6.56641 54.0007 6.42969 53.3887 6.42969ZM65.5469 5.10156C66.8815 5.10156 67.946 5.56055 68.7402 6.47852C69.5345 7.39648 69.9316 8.77669 69.9316 10.6191C69.9316 11.8366 69.7493 12.8587 69.3848 13.6855C69.0202 14.5124 68.5059 15.1374 67.8418 15.5605C67.1842 15.9837 66.4062 16.1953 65.5078 16.1953C64.9414 16.1953 64.4434 16.1204 64.0137 15.9707C63.584 15.821 63.2161 15.6191 62.9102 15.3652C62.6042 15.1113 62.3503 14.8346 62.1484 14.5352H62.0312C62.0508 14.7891 62.0736 15.0951 62.0996 15.4531C62.1322 15.8112 62.1484 16.1237 62.1484 16.3906V20.7852H60.5176V5.29688H61.8555L62.0703 6.87891H62.1484C62.3568 6.55339 62.6107 6.25716 62.9102 5.99023C63.2096 5.7168 63.5742 5.50195 64.0039 5.3457C64.4401 5.18294 64.9544 5.10156 65.5469 5.10156ZM65.2637 6.46875C64.5215 6.46875 63.9225 6.61198 63.4668 6.89844C63.0176 7.1849 62.6888 7.61458 62.4805 8.1875C62.2721 8.75391 62.1615 9.4668 62.1484 10.3262V10.6387C62.1484 11.5436 62.2461 12.3086 62.4414 12.9336C62.6432 13.5586 62.972 14.0339 63.4277 14.3594C63.89 14.6849 64.5085 14.8477 65.2832 14.8477C65.9473 14.8477 66.5007 14.6686 66.9434 14.3105C67.3861 13.9525 67.7148 13.4544 67.9297 12.8164C68.151 12.1719 68.2617 11.4329 68.2617 10.5996C68.2617 9.33659 68.0143 8.33398 67.5195 7.5918C67.0312 6.8431 66.2793 6.46875 65.2637 6.46875ZM89.541 8.72461C89.541 10.3327 89.248 11.6771 88.6621 12.7578C88.0762 13.832 87.2266 14.6426 86.1133 15.1895C85.0065 15.7298 83.6621 16 82.0801 16H78.2031V1.72266H82.5098C83.9616 1.72266 85.2116 1.98958 86.2598 2.52344C87.3079 3.05078 88.1152 3.83529 88.6816 4.87695C89.2546 5.91211 89.541 7.19466 89.541 8.72461ZM87.793 8.7832C87.793 7.50065 87.5781 6.44271 87.1484 5.60938C86.7253 4.77604 86.1003 4.15755 85.2734 3.75391C84.4531 3.34375 83.4473 3.13867 82.2559 3.13867H79.8633V14.5742H81.8848C83.8509 14.5742 85.3255 14.0892 86.3086 13.1191C87.2982 12.1491 87.793 10.7038 87.793 8.7832ZM96.4746 5.12109C97.7507 5.12109 98.6979 5.40755 99.3164 5.98047C99.9349 6.55339 100.244 7.4681 100.244 8.72461V16H99.0625L98.75 14.418H98.6719C98.3724 14.8086 98.0599 15.1374 97.7344 15.4043C97.4089 15.6647 97.0312 15.8633 96.6016 16C96.1784 16.1302 95.6576 16.1953 95.0391 16.1953C94.388 16.1953 93.8086 16.0814 93.3008 15.8535C92.7995 15.6257 92.4023 15.2806 92.1094 14.8184C91.8229 14.3561 91.6797 13.7702 91.6797 13.0605C91.6797 11.9928 92.1029 11.1725 92.9492 10.5996C93.7956 10.0267 95.0846 9.71419 96.8164 9.66211L98.6621 9.58398V8.92969C98.6621 8.00521 98.4635 7.35742 98.0664 6.98633C97.6693 6.61523 97.1094 6.42969 96.3867 6.42969C95.8268 6.42969 95.293 6.51107 94.7852 6.67383C94.2773 6.83659 93.7956 7.02865 93.3398 7.25L92.8418 6.01953C93.3236 5.77214 93.877 5.56055 94.502 5.38477C95.127 5.20898 95.7845 5.12109 96.4746 5.12109ZM98.6426 10.7266L97.0117 10.7949C95.6771 10.847 94.7363 11.0651 94.1895 11.4492C93.6426 11.8333 93.3691 12.377 93.3691 13.0801C93.3691 13.6921 93.5547 14.1445 93.9258 14.4375C94.2969 14.7305 94.7884 14.877 95.4004 14.877C96.3509 14.877 97.1289 14.6133 97.7344 14.0859C98.3398 13.5586 98.6426 12.7676 98.6426 11.7129V10.7266ZM110.508 13.0703C110.508 13.7539 110.335 14.3301 109.99 14.7988C109.652 15.2611 109.163 15.6094 108.525 15.8438C107.894 16.0781 107.139 16.1953 106.26 16.1953C105.511 16.1953 104.863 16.1367 104.316 16.0195C103.77 15.9023 103.291 15.7363 102.881 15.5215V14.0273C103.317 14.2422 103.838 14.4375 104.443 14.6133C105.049 14.7891 105.667 14.877 106.299 14.877C107.223 14.877 107.894 14.7272 108.311 14.4277C108.727 14.1283 108.936 13.7214 108.936 13.207C108.936 12.9141 108.851 12.6569 108.682 12.4355C108.519 12.2077 108.242 11.9896 107.852 11.7812C107.461 11.5664 106.921 11.332 106.23 11.0781C105.547 10.8177 104.954 10.5605 104.453 10.3066C103.958 10.0462 103.574 9.73047 103.301 9.35938C103.034 8.98828 102.9 8.50651 102.9 7.91406C102.9 7.00911 103.265 6.31576 103.994 5.83398C104.73 5.3457 105.693 5.10156 106.885 5.10156C107.529 5.10156 108.132 5.16667 108.691 5.29688C109.258 5.42057 109.785 5.58984 110.273 5.80469L109.727 7.10352C109.284 6.91471 108.812 6.75521 108.311 6.625C107.809 6.49479 107.298 6.42969 106.777 6.42969C106.029 6.42969 105.452 6.55339 105.049 6.80078C104.652 7.04818 104.453 7.38672 104.453 7.81641C104.453 8.14844 104.544 8.42188 104.727 8.63672C104.915 8.85156 105.215 9.05339 105.625 9.24219C106.035 9.43099 106.576 9.65234 107.246 9.90625C107.917 10.1536 108.496 10.4108 108.984 10.6777C109.473 10.9382 109.847 11.2572 110.107 11.6348C110.374 12.0059 110.508 12.4844 110.508 13.0703ZM114.736 0.804688V5.3457C114.736 5.60612 114.73 5.86979 114.717 6.13672C114.704 6.39714 114.681 6.63802 114.648 6.85938H114.756C114.977 6.48177 115.257 6.16602 115.596 5.91211C115.941 5.65169 116.331 5.45638 116.768 5.32617C117.204 5.18945 117.666 5.12109 118.154 5.12109C119.014 5.12109 119.73 5.25781 120.303 5.53125C120.882 5.80469 121.315 6.22786 121.602 6.80078C121.895 7.3737 122.041 8.11589 122.041 9.02734V16H120.439V9.13477C120.439 8.24284 120.234 7.57552 119.824 7.13281C119.421 6.6901 118.799 6.46875 117.959 6.46875C117.165 6.46875 116.53 6.62174 116.055 6.92773C115.586 7.22721 115.247 7.66992 115.039 8.25586C114.837 8.8418 114.736 9.55794 114.736 10.4043V16H113.115V0.804688H114.736ZM139.209 16H129.854V14.6426L133.672 10.7656C134.382 10.0495 134.977 9.41146 135.459 8.85156C135.947 8.29167 136.318 7.74154 136.572 7.20117C136.826 6.6543 136.953 6.05534 136.953 5.4043C136.953 4.59701 136.712 3.98177 136.23 3.55859C135.755 3.12891 135.127 2.91406 134.346 2.91406C133.662 2.91406 133.057 3.03125 132.529 3.26562C132.002 3.5 131.462 3.83203 130.908 4.26172L130.039 3.16797C130.417 2.84896 130.827 2.56576 131.27 2.31836C131.719 2.07096 132.197 1.87565 132.705 1.73242C133.219 1.58919 133.766 1.51758 134.346 1.51758C135.225 1.51758 135.983 1.67057 136.621 1.97656C137.259 2.28255 137.751 2.71875 138.096 3.28516C138.447 3.85156 138.623 4.52539 138.623 5.30664C138.623 6.06185 138.473 6.76497 138.174 7.41602C137.874 8.06055 137.454 8.70182 136.914 9.33984C136.374 9.97135 135.742 10.6419 135.02 11.3516L131.914 14.4473V14.5156H139.209V16ZM150.732 8.8418C150.732 10.0007 150.645 11.0358 150.469 11.9473C150.293 12.8587 150.016 13.6302 149.639 14.2617C149.261 14.8932 148.773 15.375 148.174 15.707C147.575 16.0326 146.855 16.1953 146.016 16.1953C144.954 16.1953 144.076 15.9056 143.379 15.3262C142.689 14.7467 142.171 13.9102 141.826 12.8164C141.488 11.7161 141.318 10.3913 141.318 8.8418C141.318 7.31836 141.471 6.00977 141.777 4.91602C142.09 3.81576 142.591 2.97266 143.281 2.38672C143.971 1.79427 144.883 1.49805 146.016 1.49805C147.09 1.49805 147.975 1.79102 148.672 2.37695C149.368 2.95638 149.886 3.79622 150.225 4.89648C150.563 5.99023 150.732 7.30534 150.732 8.8418ZM142.949 8.8418C142.949 10.1699 143.05 11.2767 143.252 12.1621C143.454 13.0475 143.779 13.7116 144.229 14.1543C144.684 14.5905 145.28 14.8086 146.016 14.8086C146.751 14.8086 147.344 14.5905 147.793 14.1543C148.249 13.7181 148.577 13.0573 148.779 12.1719C148.988 11.2865 149.092 10.1764 149.092 8.8418C149.092 7.5332 148.991 6.43945 148.789 5.56055C148.587 4.67513 148.262 4.01107 147.812 3.56836C147.363 3.11914 146.764 2.89453 146.016 2.89453C145.267 2.89453 144.668 3.11914 144.219 3.56836C143.77 4.01107 143.444 4.67513 143.242 5.56055C143.047 6.43945 142.949 7.5332 142.949 8.8418ZM162.1 16H152.744V14.6426L156.562 10.7656C157.272 10.0495 157.868 9.41146 158.35 8.85156C158.838 8.29167 159.209 7.74154 159.463 7.20117C159.717 6.6543 159.844 6.05534 159.844 5.4043C159.844 4.59701 159.603 3.98177 159.121 3.55859C158.646 3.12891 158.018 2.91406 157.236 2.91406C156.553 2.91406 155.947 3.03125 155.42 3.26562C154.893 3.5 154.352 3.83203 153.799 4.26172L152.93 3.16797C153.307 2.84896 153.717 2.56576 154.16 2.31836C154.609 2.07096 155.088 1.87565 155.596 1.73242C156.11 1.58919 156.657 1.51758 157.236 1.51758C158.115 1.51758 158.874 1.67057 159.512 1.97656C160.15 2.28255 160.641 2.71875 160.986 3.28516C161.338 3.85156 161.514 4.52539 161.514 5.30664C161.514 6.06185 161.364 6.76497 161.064 7.41602C160.765 8.06055 160.345 8.70182 159.805 9.33984C159.264 9.97135 158.633 10.6419 157.91 11.3516L154.805 14.4473V14.5156H162.1V16ZM170.225 16H168.643V5.88281C168.643 5.4987 168.643 5.16992 168.643 4.89648C168.649 4.61654 168.656 4.36263 168.662 4.13477C168.675 3.90039 168.691 3.66276 168.711 3.42188C168.509 3.63021 168.32 3.80924 168.145 3.95898C167.969 4.10221 167.751 4.28125 167.49 4.49609L165.859 5.80469L165.01 4.70117L168.877 1.72266H170.225V16Z" fill="#100C46" fill-opacity="0.8"/>
</svg>
